<?xml version="1.0" encoding="UTF-8"?>
<!DOCTYPE svg PUBLIC "-//W3C//DTD SVG 1.1//EN" "http://www.w3.org/Graphics/SVG/1.1/DTD/svg11.dtd">
<svg xmlns="http://www.w3.org/2000/svg" version="1.1" width="400px" height="400px" style="shape-rendering:geometricPrecision; text-rendering:geometricPrecision; image-rendering:optimizeQuality; fill-rule:evenodd; clip-rule:evenodd" xmlns:xlink="http://www.w3.org/1999/xlink">
<g><path style="opacity:1" fill="#000000" d="M -0.5,-0.5 C 132.833,-0.5 266.167,-0.5 399.5,-0.5C 399.5,132.833 399.5,266.167 399.5,399.5C 266.167,399.5 132.833,399.5 -0.5,399.5C -0.5,266.167 -0.5,132.833 -0.5,-0.5 Z"/></g>
<g><path style="opacity:1" fill="#36302b" d="M 190.5,66.5 C 188.775,69.4368 189.441,71.6035 192.5,73C 197.347,73.38 202.18,73.88 207,74.5C 208.561,74.3968 210.061,74.0634 211.5,73.5C 212.265,74.6119 213.265,75.2786 214.5,75.5C 221.338,77.2764 227.672,80.1098 233.5,84C 234.784,84.6838 235.951,84.5171 237,83.5C 238.335,86.6411 240.168,89.3078 242.5,91.5C 232.731,84.199 221.898,79.199 210,76.5C 208.913,78.9316 208.413,78.5983 208.5,75.5C 204.154,75.3343 199.821,75.501 195.5,76C 195,76.5 194.5,77 194,77.5C 192.246,75.75 190.079,75.0833 187.5,75.5C 187.719,76.675 187.386,77.675 186.5,78.5C 185.672,77.5853 184.672,76.9186 183.5,76.5C 180.436,78.2982 177.103,79.2982 173.5,79.5C 173.719,80.675 173.386,81.675 172.5,82.5C 171.232,81.5721 169.899,81.4054 168.5,82C 160.757,85.5411 154.09,90.5411 148.5,97C 148.957,97.414 149.291,97.914 149.5,98.5C 148.167,98.8333 146.833,99.1667 145.5,99.5C 145.833,100.167 146.167,100.833 146.5,101.5C 142.593,103.955 139.593,107.288 137.5,111.5C 136.386,110.277 136.219,108.944 137,107.5C 140.508,103.327 144.008,99.1602 147.5,95C 147.043,94.586 146.709,94.086 146.5,93.5C 148.341,92.7696 150.175,92.1029 152,91.5C 152.483,90.552 152.649,89.552 152.5,88.5C 154.308,88.5086 155.975,88.0086 157.5,87C 161.474,83.7824 165.807,81.1157 170.5,79C 175.161,77.501 179.828,76.001 184.5,74.5C 185.868,72.363 186.868,70.0297 187.5,67.5C 188.417,66.8728 189.417,66.5394 190.5,66.5 Z"/></g>
<g><path style="opacity:1" fill="#131110" d="M 285.5,147.5 C 279.427,146.362 273.427,145.028 267.5,143.5C 267.643,133.384 265.81,123.718 262,114.5C 258.937,110.431 256.27,106.098 254,101.5C 250.571,97.5615 246.737,94.2281 242.5,91.5C 240.168,89.3078 238.335,86.6411 237,83.5C 235.951,84.5171 234.784,84.6838 233.5,84C 227.672,80.1098 221.338,77.2764 214.5,75.5C 214.414,74.5041 214.748,73.6708 215.5,73C 217.313,73.0464 218.979,72.8797 220.5,72.5C 214.997,70.4623 209.33,69.1289 203.5,68.5C 202.328,68.9186 201.328,69.5853 200.5,70.5C 198.78,69.0451 196.78,68.2117 194.5,68C 196.9,67.8142 199.234,67.3142 201.5,66.5C 198.861,64.6483 196.195,63.9816 193.5,64.5C 196.107,63.6816 198.774,63.1816 201.5,63C 202.167,61.6667 203.167,60.6667 204.5,60C 203.269,58.8173 203.269,57.6507 204.5,56.5C 205.496,61.418 208.329,62.7513 213,60.5C 214.901,61.5355 216.735,62.7022 218.5,64C 217.484,64.5194 216.818,65.3527 216.5,66.5C 217.154,67.5037 217.987,68.5037 219,69.5C 219.953,67.4078 221.286,67.0745 223,68.5C 223.333,67.1667 223.667,65.8333 224,64.5C 224.92,66.6317 226.087,68.6317 227.5,70.5C 228.506,70.0623 228.506,69.3957 227.5,68.5C 228.325,67.6143 229.325,67.281 230.5,67.5C 230.391,71.8864 232.058,72.2197 235.5,68.5C 237.069,69.714 237.902,71.3807 238,73.5C 239.507,72.4954 240.673,71.162 241.5,69.5C 242.244,70.9905 242.91,72.4905 243.5,74C 245.833,74.3333 248.167,74.6667 250.5,75C 249.359,75.7412 249.359,76.5745 250.5,77.5C 252.865,78.0851 254.865,79.2518 256.5,81C 255.421,81.956 254.255,82.7894 253,83.5C 252.667,85.9342 253.834,86.9342 256.5,86.5C 256.128,83.9783 256.961,81.9783 259,80.5C 259.929,84.2441 259.429,87.7441 257.5,91C 259.116,91.6152 260.449,92.6152 261.5,94C 259.845,95.4443 259.178,97.2776 259.5,99.5C 260.5,99.5 261.5,99.5 262.5,99.5C 262.5,100.833 262.5,102.167 262.5,103.5C 264.942,103.119 265.609,103.786 264.5,105.5C 265,105.833 265.5,106.167 266,106.5C 267.765,105.768 268.932,104.435 269.5,102.5C 269.997,104.216 270.331,105.883 270.5,107.5C 269.675,108.386 268.675,108.719 267.5,108.5C 267.886,113.492 269.552,117.992 272.5,122C 271.709,123.101 271.709,123.934 272.5,124.5C 273.885,120.622 275.051,120.622 276,124.5C 278.599,120.661 279.766,121.328 279.5,126.5C 278.5,126.5 277.5,126.5 276.5,126.5C 276.329,129.797 276.995,130.131 278.5,127.5C 279.907,130.721 280.907,134.055 281.5,137.5C 282.5,137.5 283.5,137.5 284.5,137.5C 284.64,139.124 283.973,140.29 282.5,141C 285.288,143.374 284.954,144.707 281.5,145C 283.066,145.608 284.4,146.442 285.5,147.5 Z"/></g>
<g><path style="opacity:1" fill="#a69d84" d="M 315.5,98.5 C 317.783,98.6079 319.783,99.4412 321.5,101C 318.797,101.605 316.797,100.772 315.5,98.5 Z"/></g>
<g><path style="opacity:1" fill="#b0a68d" d="M 313.5,101.5 C 316.01,101.991 318.344,102.991 320.5,104.5C 319.635,105.583 318.635,105.749 317.5,105C 315.681,104.26 314.348,103.093 313.5,101.5 Z"/></g>
<g><path style="opacity:1" fill="#080605" d="M 333.5,131.5 C 336.41,128.016 337.91,124.016 338,119.5C 337.535,118.069 336.701,116.903 335.5,116C 331.136,113.818 326.802,111.651 322.5,109.5C 323.456,107.925 324.123,106.258 324.5,104.5C 325.222,104.082 325.722,103.416 326,102.5C 335.042,105.709 344.042,109.042 353,112.5C 353.963,119.538 350.796,122.705 343.5,122C 340.581,125.673 338.581,129.84 337.5,134.5C 336.311,135.429 334.978,135.762 333.5,135.5C 333.5,134.167 333.5,132.833 333.5,131.5 Z"/></g>
<g><path style="opacity:1" fill="#bfb8a6" d="M 313.5,107.5 C 315.089,106.379 316.756,106.546 318.5,108C 316.803,108.384 315.137,108.218 313.5,107.5 Z"/></g>
<g><path style="opacity:1" fill="#13100e" d="M 190.5,66.5 C 189.417,66.5394 188.417,66.8728 187.5,67.5C 186.868,70.0297 185.868,72.363 184.5,74.5C 179.828,76.001 175.161,77.501 170.5,79C 165.807,81.1157 161.474,83.7824 157.5,87C 155.975,88.0086 154.308,88.5086 152.5,88.5C 152.649,89.552 152.483,90.552 152,91.5C 150.175,92.1029 148.341,92.7696 146.5,93.5C 146.709,94.086 147.043,94.586 147.5,95C 144.008,99.1602 140.508,103.327 137,107.5C 136.219,108.944 136.386,110.277 137.5,111.5C 139.593,107.288 142.593,103.955 146.5,101.5C 146.167,100.833 145.833,100.167 145.5,99.5C 146.833,99.1667 148.167,98.8333 149.5,98.5C 149.291,97.914 148.957,97.414 148.5,97C 154.09,90.5411 160.757,85.5411 168.5,82C 169.899,81.4054 171.232,81.5721 172.5,82.5C 173.386,81.675 173.719,80.675 173.5,79.5C 177.103,79.2982 180.436,78.2982 183.5,76.5C 184.672,76.9186 185.672,77.5853 186.5,78.5C 187.386,77.675 187.719,76.675 187.5,75.5C 190.079,75.0833 192.246,75.75 194,77.5C 194.5,77 195,76.5 195.5,76C 199.821,75.501 204.154,75.3343 208.5,75.5C 208.413,78.5983 208.913,78.9316 210,76.5C 221.898,79.199 232.731,84.199 242.5,91.5C 241.398,93.0919 242.065,93.9252 244.5,94C 249.355,98.3217 252.688,103.488 254.5,109.5C 255.675,109.281 256.675,109.614 257.5,110.5C 263.367,120.608 265.7,131.275 264.5,142.5C 262.533,142.739 260.699,142.406 259,141.5C 258.85,135.919 258.017,130.586 256.5,125.5C 256.672,124.508 256.338,123.842 255.5,123.5C 254.618,119.407 252.951,115.74 250.5,112.5C 239.761,95.4631 224.427,85.4631 204.5,82.5C 196.525,80.9983 188.525,81.4983 180.5,84C 179.944,84.3826 179.611,84.8826 179.5,85.5C 179.167,85.5 178.833,85.5 178.5,85.5C 159.9,91.7672 147.233,104.1 140.5,122.5C 139.193,124.223 139.193,126.057 140.5,128C 132.858,127.794 125.191,127.628 117.5,127.5C 120.332,126.919 122.665,125.419 124.5,123C 124.333,122.5 124.167,122 124,121.5C 123.107,122.711 122.274,122.711 121.5,121.5C 124.136,119.936 123.969,118.603 121,117.5C 120.51,116.207 120.343,114.873 120.5,113.5C 121.93,113.421 123.264,113.754 124.5,114.5C 124.833,114.167 125.167,113.833 125.5,113.5C 124.675,112.614 123.675,112.281 122.5,112.5C 122.967,110.289 123.967,108.289 125.5,106.5C 126.421,108.756 128.088,109.756 130.5,109.5C 130.673,106.821 131.673,104.487 133.5,102.5C 131.934,99.5056 132.601,98.5056 135.5,99.5C 136.316,97.7127 137.316,96.0461 138.5,94.5C 140.005,97.1306 140.671,96.7973 140.5,93.5C 139.5,93.5 138.5,93.5 137.5,93.5C 137.579,92.0695 137.246,90.7362 136.5,89.5C 137.934,88.7702 139.1,87.7702 140,86.5C 140.333,86.8333 140.667,87.1667 141,87.5C 142.61,85.269 144.443,83.269 146.5,81.5C 147.5,82.1667 148.5,82.8333 149.5,83.5C 149.833,83.1667 150.167,82.8333 150.5,82.5C 148.987,81.1537 147.653,79.6537 146.5,78C 146.833,77.5 147.167,77 147.5,76.5C 148.62,77.8334 149.953,78.3334 151.5,78C 151.279,76.2015 150.946,74.3682 150.5,72.5C 150.977,71.5224 151.643,70.6891 152.5,70C 154.049,70.5219 155.549,70.3553 157,69.5C 158.584,69.9884 159.751,70.9884 160.5,72.5C 163.767,71.2885 167.101,70.2885 170.5,69.5C 169.355,68.109 169.355,66.7757 170.5,65.5C 171.913,67.3683 173.08,69.3683 174,71.5C 178.438,68.7004 178.272,67.3671 173.5,67.5C 173.343,66.1266 173.51,64.7932 174,63.5C 174.741,64.6405 175.575,64.6405 176.5,63.5C 179.697,64.14 180.863,65.8066 180,68.5C 181.707,67.8617 183.54,67.8617 185.5,68.5C 185.085,66.2532 184.418,64.0865 183.5,62C 183.833,61.1667 184.167,60.3333 184.5,59.5C 186.637,60.8681 188.97,61.8681 191.5,62.5C 190.619,63.9705 189.286,64.8038 187.5,65C 188.737,65.2321 189.737,65.7321 190.5,66.5 Z"/></g>
<g><path style="opacity:1" fill="#564227" d="M 165.5,95.5 C 166.167,95.5 166.833,95.5 167.5,95.5C 163.546,99.5904 159.379,103.59 155,107.5C 152.465,111.266 149.965,114.933 147.5,118.5C 149.663,107.985 155.663,100.318 165.5,95.5 Z"/></g>
<g><path style="opacity:1" fill="#a1906d" d="M 232.5,99.5 C 234.179,99.8923 235.846,100.392 237.5,101C 241.441,104.438 244.775,108.271 247.5,112.5C 248.369,114.717 248.702,117.05 248.5,119.5C 246.196,116.342 244.03,113.009 242,109.5C 238.629,106.297 235.462,102.964 232.5,99.5 Z"/></g>
<g><path style="opacity:1" fill="#938061" d="M 224.5,94.5 C 228.725,93.7314 231.391,95.3981 232.5,99.5C 229.489,98.3307 226.822,96.664 224.5,94.5 Z"/></g>
<g><path style="opacity:1" fill="#d0b98e" d="M 204.5,82.5 C 224.427,85.4631 239.761,95.4631 250.5,112.5C 249.542,112.047 248.708,111.381 248,110.5C 247.536,111.094 247.369,111.761 247.5,112.5C 244.775,108.271 241.441,104.438 237.5,101C 235.846,100.392 234.179,99.8923 232.5,99.5C 231.391,95.3981 228.725,93.7314 224.5,94.5C 223.833,94.1667 223.167,93.8333 222.5,93.5C 221.71,92.2058 220.71,91.0391 219.5,90C 210.022,86.5117 200.356,85.6783 190.5,87.5C 190.433,86.0413 190.766,84.7079 191.5,83.5C 195.634,82.5151 199.968,82.1818 204.5,82.5 Z"/></g>
<g><path style="opacity:1" fill="#856d47" d="M 182.5,89.5 C 177.735,91.871 172.735,93.871 167.5,95.5C 166.833,95.5 166.167,95.5 165.5,95.5C 170.075,90.7506 175.742,88.7506 182.5,89.5 Z"/></g>
<g><path style="opacity:1" fill="#8e7e5a" d="M 222.5,93.5 C 212.258,89.4173 201.592,87.7506 190.5,88.5C 190.5,88.1667 190.5,87.8333 190.5,87.5C 200.356,85.6783 210.022,86.5117 219.5,90C 220.71,91.0391 221.71,92.2058 222.5,93.5 Z"/></g>
<g><path style="opacity:1" fill="#f2eedf" d="M 191.5,83.5 C 190.766,84.7079 190.433,86.0413 190.5,87.5C 190.5,87.8333 190.5,88.1667 190.5,88.5C 187.794,88.5751 185.127,88.9084 182.5,89.5C 181.167,88.1667 179.833,86.8333 178.5,85.5C 178.833,85.5 179.167,85.5 179.5,85.5C 183.342,83.9983 187.342,83.3316 191.5,83.5 Z"/></g>
<g><path style="opacity:1" fill="#564f43" d="M 204.5,82.5 C 199.968,82.1818 195.634,82.5151 191.5,83.5C 187.342,83.3316 183.342,83.9983 179.5,85.5C 179.611,84.8826 179.944,84.3826 180.5,84C 188.525,81.4983 196.525,80.9983 204.5,82.5 Z"/></g>
<g><path style="opacity:1" fill="#c9ba95" d="M 178.5,85.5 C 179.833,86.8333 181.167,88.1667 182.5,89.5C 175.742,88.7506 170.075,90.7506 165.5,95.5C 155.663,100.318 149.663,107.985 147.5,118.5C 146.345,121.457 145.345,124.457 144.5,127.5C 143.849,128.091 143.182,128.757 142.5,129.5C 141.579,127.223 140.913,124.89 140.5,122.5C 147.233,104.1 159.9,91.7672 178.5,85.5 Z"/></g>
<g><path style="opacity:1" fill="#55524d" d="M 242.5,91.5 C 246.737,94.2281 250.571,97.5615 254,101.5C 256.27,106.098 258.937,110.431 262,114.5C 265.81,123.718 267.643,133.384 267.5,143.5C 266.209,143.737 265.209,143.404 264.5,142.5C 265.7,131.275 263.367,120.608 257.5,110.5C 256.675,109.614 255.675,109.281 254.5,109.5C 252.688,103.488 249.355,98.3217 244.5,94C 242.065,93.9252 241.398,93.0919 242.5,91.5 Z"/></g>
<g><path style="opacity:1" fill="#eae6d0" d="M 250.5,112.5 C 252.951,115.74 254.618,119.407 255.5,123.5C 254.575,126.131 252.909,126.798 250.5,125.5C 250.029,123.421 249.363,121.421 248.5,119.5C 248.702,117.05 248.369,114.717 247.5,112.5C 247.369,111.761 247.536,111.094 248,110.5C 248.708,111.381 249.542,112.047 250.5,112.5 Z"/></g>
<g><path style="opacity:1" fill="#b3a589" d="M 333.5,142.5 C 332.662,142.158 332.328,141.492 332.5,140.5C 331.736,137.023 331.736,133.357 332.5,129.5C 333.338,129.842 333.672,130.508 333.5,131.5C 333.5,132.833 333.5,134.167 333.5,135.5C 334.978,135.762 336.311,135.429 337.5,134.5C 338.581,129.84 340.581,125.673 343.5,122C 350.796,122.705 353.963,119.538 353,112.5C 344.042,109.042 335.042,105.709 326,102.5C 325.722,103.416 325.222,104.082 324.5,104.5C 324.5,103.833 324.167,103.5 323.5,103.5C 323.415,102.005 324.081,101.005 325.5,100.5C 326.7,101.531 328.034,102.365 329.5,103C 336.167,104.667 342.833,106.333 349.5,108C 355.455,110.573 356.955,114.739 354,120.5C 350.299,122.473 346.466,124.14 342.5,125.5C 341.028,128.717 339.862,132.051 339,135.5C 337.147,137.903 335.314,140.236 333.5,142.5 Z"/></g>
<g><path style="opacity:1" fill="#050303" d="M 190.5,88.5 C 201.592,87.7506 212.258,89.4173 222.5,93.5C 223.167,93.8333 223.833,94.1667 224.5,94.5C 226.822,96.664 229.489,98.3307 232.5,99.5C 235.462,102.964 238.629,106.297 242,109.5C 244.03,113.009 246.196,116.342 248.5,119.5C 249.363,121.421 250.029,123.421 250.5,125.5C 252.693,129.895 253.693,134.562 253.5,139.5C 248.27,140.156 242.936,140.989 237.5,142C 234.405,142.935 232.071,144.769 230.5,147.5C 229.766,148.708 229.433,150.041 229.5,151.5C 228.397,156.982 226.23,161.982 223,166.5C 222.617,165.944 222.117,165.611 221.5,165.5C 220.656,161.901 220.323,158.234 220.5,154.5C 222.219,144.121 222.553,133.621 221.5,123C 218.551,122.153 216.218,122.986 214.5,125.5C 214.667,125.833 214.833,126.167 215,126.5C 216.471,124.128 217.637,124.128 218.5,126.5C 217.031,134.781 216.031,143.115 215.5,151.5C 215.187,155.042 215.521,158.375 216.5,161.5C 216.5,162.167 216.5,162.833 216.5,163.5C 217.167,164.833 218.167,165.833 219.5,166.5C 221.817,167.942 223.984,167.608 226,165.5C 228.007,160.98 229.507,156.313 230.5,151.5C 231.401,150.71 232.068,149.71 232.5,148.5C 234.757,146.077 237.424,144.243 240.5,143C 244.821,142.501 249.154,142.334 253.5,142.5C 253.517,153.775 250.517,164.109 244.5,173.5C 243.075,174.922 242.075,176.589 241.5,178.5C 238.036,181.462 234.703,184.629 231.5,188C 227.268,190.275 223.268,192.775 219.5,195.5C 211.777,198.43 203.777,199.763 195.5,199.5C 191.785,199.577 188.119,199.244 184.5,198.5C 153.908,187.362 139.908,165.362 142.5,132.5C 145.068,131.768 147.734,131.768 150.5,132.5C 156.492,133.774 162.492,133.774 168.5,132.5C 168.33,141.145 168.663,149.812 169.5,158.5C 169.5,160.5 169.5,162.5 169.5,164.5C 170.833,164.5 172.167,164.5 173.5,164.5C 173.5,161.5 173.5,158.5 173.5,155.5C 174.881,146.881 176.381,138.215 178,129.5C 175.578,136.807 173.744,144.14 172.5,151.5C 172.5,150.167 172.5,148.833 172.5,147.5C 172.653,141.155 172.986,134.822 173.5,128.5C 171.214,128.595 169.214,129.262 167.5,130.5C 166.833,130.5 166.167,130.5 165.5,130.5C 159.158,130.666 152.825,130.5 146.5,130C 145.244,129.583 144.577,128.75 144.5,127.5C 145.345,124.457 146.345,121.457 147.5,118.5C 149.965,114.933 152.465,111.266 155,107.5C 159.379,103.59 163.546,99.5904 167.5,95.5C 172.735,93.871 177.735,91.871 182.5,89.5C 185.127,88.9084 187.794,88.5751 190.5,88.5 Z"/></g>
<g><path style="opacity:1" fill="#c3bda6" d="M 323.5,103.5 C 324.167,103.5 324.5,103.833 324.5,104.5C 324.123,106.258 323.456,107.925 322.5,109.5C 326.802,111.651 331.136,113.818 335.5,116C 336.701,116.903 337.535,118.069 338,119.5C 337.91,124.016 336.41,128.016 333.5,131.5C 333.672,130.508 333.338,129.842 332.5,129.5C 331.903,129.265 331.57,128.765 331.5,128C 333.013,126.121 333.679,123.954 333.5,121.5C 334.675,121.719 335.675,121.386 336.5,120.5C 332.529,115.181 327.196,112.515 320.5,112.5C 320.905,109.285 321.905,106.285 323.5,103.5 Z"/></g>
<g><path style="opacity:1" fill="#6d5e43" d="M 57.5,119.5 C 59.3943,125.254 61.2276,130.921 63,136.5C 59.9845,131.475 57.8178,126.142 56.5,120.5C 56.5,119.833 56.8333,119.5 57.5,119.5 Z"/></g>
<g><path style="opacity:1" fill="#dbd0ae" d="M 56.5,120.5 C 57.8178,126.142 59.9845,131.475 63,136.5C 61.2276,130.921 59.3943,125.254 57.5,119.5C 59.0518,118.378 60.7184,117.878 62.5,118C 66.3044,122.786 69.1378,127.953 71,133.5C 69.7453,134.211 68.5786,135.044 67.5,136C 70.1961,140.223 72.1961,144.723 73.5,149.5C 72.5,149.5 71.5,149.5 70.5,149.5C 69.5719,145.638 68.0719,141.971 66,138.5C 64.6667,137.167 63.3333,137.167 62,138.5C 57.7641,132.979 55.9307,126.979 56.5,120.5 Z"/></g>
<g><path style="opacity:1" fill="#c5a679" d="M 165.5,130.5 C 166.167,130.5 166.833,130.5 167.5,130.5C 169.698,130.409 170.031,131.075 168.5,132.5C 162.492,133.774 156.492,133.774 150.5,132.5C 155.5,131.833 160.5,131.167 165.5,130.5 Z"/></g>
<g><path style="opacity:1" fill="#615036" d="M 116.5,127.5 C 119.833,128.167 123.167,128.833 126.5,129.5C 125.167,129.5 123.833,129.5 122.5,129.5C 117.295,129.134 112.295,129.967 107.5,132C 102.378,135.29 97.7112,139.123 93.5,143.5C 92.8333,143.5 92.1667,143.5 91.5,143.5C 97.4061,134.38 105.739,129.047 116.5,127.5 Z"/></g>
<g><path style="opacity:1" fill="#695232" d="M 172.5,147.5 C 171.698,146.048 171.198,144.382 171,142.5C 169.603,147.708 169.103,153.041 169.5,158.5C 168.663,149.812 168.33,141.145 168.5,132.5C 170.031,131.075 169.698,130.409 167.5,130.5C 169.214,129.262 171.214,128.595 173.5,128.5C 172.986,134.822 172.653,141.155 172.5,147.5 Z"/></g>
<g><path style="opacity:1" fill="#695131" d="M 220.5,154.5 C 220.5,151.167 220.5,147.833 220.5,144.5C 219.178,144.33 218.011,144.663 217,145.5C 216.809,147.708 216.309,149.708 215.5,151.5C 216.031,143.115 217.031,134.781 218.5,126.5C 217.637,124.128 216.471,124.128 215,126.5C 214.833,126.167 214.667,125.833 214.5,125.5C 216.218,122.986 218.551,122.153 221.5,123C 222.553,133.621 222.219,144.121 220.5,154.5 Z"/></g>
<g><path style="opacity:1" fill="#d6af72" d="M 203.5,139.5 C 202.041,139.567 200.708,139.234 199.5,138.5C 199.5,137.833 199.5,137.167 199.5,136.5C 199.337,134.143 199.503,131.81 200,129.5C 201.356,128.62 202.856,128.286 204.5,128.5C 203.886,132.135 203.552,135.802 203.5,139.5 Z"/></g>
<g><path style="opacity:1" fill="#7f6e4a" d="M 255.5,123.5 C 256.338,123.842 256.672,124.508 256.5,125.5C 256.096,126.756 255.429,127.923 254.5,129C 255.572,133.124 255.738,137.29 255,141.5C 254.722,140.584 254.222,139.918 253.5,139.5C 253.693,134.562 252.693,129.895 250.5,125.5C 252.909,126.798 254.575,126.131 255.5,123.5 Z"/></g>
<g><path style="opacity:1" fill="#13110f" d="M 122.5,129.5 C 123.833,129.5 125.167,129.5 126.5,129.5C 127.5,129.5 128.5,129.5 129.5,129.5C 128.859,130.482 128.193,131.482 127.5,132.5C 128.077,136.59 128.077,140.59 127.5,144.5C 128.387,165.058 136.054,181.725 150.5,194.5C 151.684,195.688 151.684,196.855 150.5,198C 154.335,198.055 157.668,199.722 160.5,203C 162.025,204.009 163.692,204.509 165.5,204.5C 165.5,205.833 165.5,207.167 165.5,208.5C 167.143,208.48 168.476,209.147 169.5,210.5C 171.739,208.476 174.072,208.642 176.5,211C 175.049,210.737 173.716,210.904 172.5,211.5C 175.071,212.905 175.071,214.238 172.5,215.5C 168.634,215.046 165.134,213.712 162,211.5C 161.586,211.957 161.086,212.291 160.5,212.5C 159.414,209.289 157.414,208.289 154.5,209.5C 153.258,205.521 150.591,202.854 146.5,201.5C 145.914,201.709 145.414,202.043 145,202.5C 144.396,197.743 141.896,194.743 137.5,193.5C 137.649,192.448 137.483,191.448 137,190.5C 133.522,185.663 130.188,180.663 127,175.5C 125.653,179.375 124.486,179.375 123.5,175.5C 121.941,176.074 120.441,176.74 119,177.5C 118.833,177.167 118.667,176.833 118.5,176.5C 119.877,174.711 120.877,172.711 121.5,170.5C 119.5,169.167 117.833,167.5 116.5,165.5C 117.776,162.966 118.11,160.466 117.5,158C 119.787,158.958 121.453,158.124 122.5,155.5C 120.971,153.812 119.137,152.479 117,151.5C 116.383,152.449 116.549,153.282 117.5,154C 116.256,154.456 115.423,153.956 115,152.5C 113.533,149.216 113.699,146.216 115.5,143.5C 114.833,142.833 114.167,142.167 113.5,141.5C 114.309,139.929 114.643,138.262 114.5,136.5C 115.5,136.5 116.5,136.5 117.5,136.5C 117.202,139.336 117.869,139.836 119.5,138C 118.446,136.612 118.28,135.112 119,133.5C 121.071,132.897 122.238,131.564 122.5,129.5 Z"/></g>
<g><path style="opacity:1" fill="#493e34" d="M 173.5,155.5 C 172.566,154.432 172.232,153.099 172.5,151.5C 173.744,144.14 175.578,136.807 178,129.5C 176.381,138.215 174.881,146.881 173.5,155.5 Z"/></g>
<g><path style="opacity:1" fill="#3e3125" d="M 199.5,136.5 C 199.5,137.167 199.5,137.833 199.5,138.5C 199.5,145.5 199.5,152.5 199.5,159.5C 198.834,155.647 198.167,151.647 197.5,147.5C 196.583,148.127 195.583,148.461 194.5,148.5C 195.315,147.163 196.482,146.163 198,145.5C 198.181,142.305 198.681,139.305 199.5,136.5 Z"/></g>
<g><path style="opacity:1" fill="#5e4e31" d="M 256.5,125.5 C 258.017,130.586 258.85,135.919 259,141.5C 260.699,142.406 262.533,142.739 264.5,142.5C 265.209,143.404 266.209,143.737 267.5,143.5C 273.427,145.028 279.427,146.362 285.5,147.5C 288.258,148.761 291.258,149.594 294.5,150C 301.833,150.667 309.167,150.667 316.5,150C 323.257,149.046 328.591,145.879 332.5,140.5C 332.328,141.492 332.662,142.158 333.5,142.5C 328.935,148.289 322.935,151.789 315.5,153C 302.561,153.644 289.894,152.144 277.5,148.5C 275.095,147.232 272.428,146.565 269.5,146.5C 268.432,145.566 267.099,145.232 265.5,145.5C 263.565,144.85 261.565,144.517 259.5,144.5C 259.32,157.59 255.32,169.257 247.5,179.5C 247.66,177.801 247.494,176.134 247,174.5C 246.329,173.748 245.496,173.414 244.5,173.5C 250.517,164.109 253.517,153.775 253.5,142.5C 249.154,142.334 244.821,142.501 240.5,143C 237.424,144.243 234.757,146.077 232.5,148.5C 232.158,147.662 231.492,147.328 230.5,147.5C 232.071,144.769 234.405,142.935 237.5,142C 242.936,140.989 248.27,140.156 253.5,139.5C 254.222,139.918 254.722,140.584 255,141.5C 255.738,137.29 255.572,133.124 254.5,129C 255.429,127.923 256.096,126.756 256.5,125.5 Z"/></g>
<g><path style="opacity:1" fill="#4d4226" d="M 136.5,130.5 C 138.722,130.559 139.722,131.725 139.5,134C 138.324,143.493 138.324,152.993 139.5,162.5C 135.327,152.299 134.327,141.632 136.5,130.5 Z"/></g>
<g><path style="opacity:1" fill="#b59a6f" d="M 91.5,143.5 C 92.1667,143.5 92.8333,143.5 93.5,143.5C 90.8452,148.139 88.1785,152.806 85.5,157.5C 84.4173,156.635 84.2506,155.635 85,154.5C 86.6743,150.476 88.841,146.809 91.5,143.5 Z"/></g>
<g><path style="opacity:1" fill="#40362a" d="M 203.5,160.5 C 202.196,154.734 202.196,149.067 203.5,143.5C 203.335,147.182 203.501,150.848 204,154.5C 205.266,148.704 206.932,143.037 209,137.5C 207.941,145.4 206.108,153.066 203.5,160.5 Z"/></g>
<g><path style="opacity:1" fill="#826845" d="M 194.5,148.5 C 193.002,153.457 191.502,158.457 190,163.5C 187.93,169.535 183.93,171.535 178,169.5C 176.93,165.858 177.764,162.858 180.5,160.5C 179.072,163.012 178.572,165.678 179,168.5C 180.388,169.554 181.888,169.72 183.5,169C 186.533,164.03 187.866,158.864 187.5,153.5C 187.783,152.711 188.283,152.044 189,151.5C 189.667,144.5 189.667,137.5 189,130.5C 188.496,126.98 186.663,124.48 183.5,123C 188.098,121.909 190.931,123.743 192,128.5C 193.047,135.268 193.88,141.935 194.5,148.5 Z"/></g>
<g><path style="opacity:1" fill="#3d3835" d="M 265.5,145.5 C 267.099,145.232 268.432,145.566 269.5,146.5C 268.252,147.334 267.585,148.667 267.5,150.5C 268.495,153.129 268.161,155.296 266.5,157C 270.396,158.694 270.062,159.86 265.5,160.5C 263.229,170.051 258.896,178.384 252.5,185.5C 253.372,183.052 254.705,180.885 256.5,179C 255.044,178.577 254.544,177.744 255,176.5C 255.893,177.711 256.726,177.711 257.5,176.5C 258.123,174.289 259.123,172.289 260.5,170.5C 259.833,169.833 259.167,169.167 258.5,168.5C 259.274,167.289 260.107,167.289 261,168.5C 262.302,165.625 263.135,162.625 263.5,159.5C 259.828,158.955 260.162,158.622 264.5,158.5C 265.071,154.087 265.404,149.754 265.5,145.5 Z"/></g>
<g><path style="opacity:1" fill="#816c46" d="M 140.5,122.5 C 140.913,124.89 141.579,127.223 142.5,129.5C 143.182,128.757 143.849,128.091 144.5,127.5C 144.577,128.75 145.244,129.583 146.5,130C 152.825,130.5 159.158,130.666 165.5,130.5C 160.5,131.167 155.5,131.833 150.5,132.5C 147.734,131.768 145.068,131.768 142.5,132.5C 142.44,131.957 142.107,131.624 141.5,131.5C 140.149,135.55 139.483,139.717 139.5,144C 140.001,151.335 141.334,158.502 143.5,165.5C 143.083,168.079 143.75,170.246 145.5,172C 144.944,172.383 144.611,172.883 144.5,173.5C 141.574,170.524 139.908,166.858 139.5,162.5C 138.324,152.993 138.324,143.493 139.5,134C 139.722,131.725 138.722,130.559 136.5,130.5C 135.5,130.5 134.5,130.5 133.5,130.5C 132.432,129.566 131.099,129.232 129.5,129.5C 128.5,129.5 127.5,129.5 126.5,129.5C 123.167,128.833 119.833,128.167 116.5,127.5C 116.833,127.5 117.167,127.5 117.5,127.5C 125.191,127.628 132.858,127.794 140.5,128C 139.193,126.057 139.193,124.223 140.5,122.5 Z"/></g>
<g><path style="opacity:1" fill="#715831" d="M 199.5,138.5 C 200.708,139.234 202.041,139.567 203.5,139.5C 203.5,140.833 203.5,142.167 203.5,143.5C 202.196,149.067 202.196,154.734 203.5,160.5C 203.5,162.167 203.5,163.833 203.5,165.5C 202.167,165.5 200.833,165.5 199.5,165.5C 199.5,163.5 199.5,161.5 199.5,159.5C 199.5,152.5 199.5,145.5 199.5,138.5 Z"/></g>
<g><path style="opacity:1" fill="#cfac74" d="M 172.5,147.5 C 172.5,148.833 172.5,150.167 172.5,151.5C 172.232,153.099 172.566,154.432 173.5,155.5C 173.5,158.5 173.5,161.5 173.5,164.5C 172.167,164.5 170.833,164.5 169.5,164.5C 169.5,162.5 169.5,160.5 169.5,158.5C 169.103,153.041 169.603,147.708 171,142.5C 171.198,144.382 171.698,146.048 172.5,147.5 Z"/></g>
<g><path style="opacity:1" fill="#524d49" d="M 129.5,129.5 C 131.099,129.232 132.432,129.566 133.5,130.5C 132.504,130.414 131.671,130.748 131,131.5C 130.065,133.909 129.565,136.409 129.5,139C 129.144,145.482 129.644,151.982 131,158.5C 131.75,159.126 132.584,159.626 133.5,160C 132.754,163.231 133.254,166.397 135,169.5C 135.893,168.289 136.726,168.289 137.5,169.5C 136.975,170.192 136.308,170.692 135.5,171C 139.569,179.214 144.569,186.714 150.5,193.5C 150.5,193.833 150.5,194.167 150.5,194.5C 136.054,181.725 128.387,165.058 127.5,144.5C 128.077,140.59 128.077,136.59 127.5,132.5C 128.193,131.482 128.859,130.482 129.5,129.5 Z"/></g>
<g><path style="opacity:1" fill="#13110f" d="M 269.5,146.5 C 272.428,146.565 275.095,147.232 277.5,148.5C 276.022,148.238 274.689,148.571 273.5,149.5C 274.325,150.386 275.325,150.719 276.5,150.5C 276.11,153.466 276.777,156.132 278.5,158.5C 277.91,159.799 276.91,160.632 275.5,161C 276.308,161.308 276.975,161.808 277.5,162.5C 275.581,162.614 273.581,163.28 271.5,164.5C 271.67,165.822 271.337,166.989 270.5,168C 271.624,168.249 272.624,168.749 273.5,169.5C 272.349,170.731 271.183,170.731 270,169.5C 268.649,175.039 266.149,179.872 262.5,184C 264.161,184.995 265.495,186.328 266.5,188C 265.385,189.235 265.385,190.402 266.5,191.5C 264.831,193.784 262.831,194.618 260.5,194C 261.711,194.893 261.711,195.726 260.5,196.5C 259.749,195.624 259.249,194.624 259,193.5C 258.167,194.5 257.333,195.5 256.5,196.5C 255.808,195.975 255.308,195.308 255,194.5C 254.167,196 253,197.167 251.5,198C 253.569,198.324 253.902,199.158 252.5,200.5C 251.372,201.262 250.205,201.929 249,202.5C 247.575,201.788 246.075,201.621 244.5,202C 242.109,200.691 242.109,199.691 244.5,199C 243.552,198.517 242.552,198.351 241.5,198.5C 244.438,196.066 247.271,193.399 250,190.5C 251.094,188.922 251.928,187.255 252.5,185.5C 258.896,178.384 263.229,170.051 265.5,160.5C 270.062,159.86 270.396,158.694 266.5,157C 268.161,155.296 268.495,153.129 267.5,150.5C 267.585,148.667 268.252,147.334 269.5,146.5 Z"/></g>
<g><path style="opacity:1" fill="#c5b089" d="M 142.5,132.5 C 139.908,165.362 153.908,187.362 184.5,198.5C 185.654,200.651 186.987,202.651 188.5,204.5C 181.948,203.872 175.948,201.872 170.5,198.5C 165.191,192.359 159.358,186.692 153,181.5C 149.542,176.236 146.375,170.903 143.5,165.5C 141.334,158.502 140.001,151.335 139.5,144C 139.483,139.717 140.149,135.55 141.5,131.5C 142.107,131.624 142.44,131.957 142.5,132.5 Z"/></g>
<g><path style="opacity:1" fill="#100c09" d="M 133.5,130.5 C 134.5,130.5 135.5,130.5 136.5,130.5C 134.327,141.632 135.327,152.299 139.5,162.5C 139.908,166.858 141.574,170.524 144.5,173.5C 149.893,185.226 158.56,193.559 170.5,198.5C 175.948,201.872 181.948,203.872 188.5,204.5C 188.833,204.5 189.167,204.5 189.5,204.5C 202.625,206.676 214.958,204.342 226.5,197.5C 230.137,196.014 233.47,194.014 236.5,191.5C 240.876,188.126 244.542,184.126 247.5,179.5C 255.32,169.257 259.32,157.59 259.5,144.5C 261.565,144.517 263.565,144.85 265.5,145.5C 265.404,149.754 265.071,154.087 264.5,158.5C 260.162,158.622 259.828,158.955 263.5,159.5C 263.135,162.625 262.302,165.625 261,168.5C 260.107,167.289 259.274,167.289 258.5,168.5C 259.167,169.167 259.833,169.833 260.5,170.5C 259.123,172.289 258.123,174.289 257.5,176.5C 256.726,177.711 255.893,177.711 255,176.5C 254.544,177.744 255.044,178.577 256.5,179C 254.705,180.885 253.372,183.052 252.5,185.5C 250.083,187.411 247.75,189.578 245.5,192C 244.552,192.483 243.552,192.649 242.5,192.5C 242.762,195.921 241.428,196.921 238.5,195.5C 237.289,196.274 237.289,197.107 238.5,198C 237.833,198.667 237.167,199.333 236.5,200C 231.351,202.921 226.684,205.255 222.5,207C 221.101,207.595 219.768,207.428 218.5,206.5C 216.496,208.752 213.996,210.086 211,210.5C 208.306,209.886 205.639,209.552 203,209.5C 194.835,212.106 186.668,211.939 178.5,209C 177.929,207.795 177.262,206.628 176.5,205.5C 173.542,208.293 171.542,207.626 170.5,203.5C 168.844,201.978 167.677,202.311 167,204.5C 161.496,201.607 155.996,197.94 150.5,193.5C 144.569,186.714 139.569,179.214 135.5,171C 136.308,170.692 136.975,170.192 137.5,169.5C 136.726,168.289 135.893,168.289 135,169.5C 133.254,166.397 132.754,163.231 133.5,160C 132.584,159.626 131.75,159.126 131,158.5C 129.644,151.982 129.144,145.482 129.5,139C 129.565,136.409 130.065,133.909 131,131.5C 131.671,130.748 132.504,130.414 133.5,130.5 Z"/></g>
<g><path style="opacity:1" fill="#dfdbc6" d="M 236.5,191.5 C 233.47,194.014 230.137,196.014 226.5,197.5C 223.848,197.59 221.515,196.924 219.5,195.5C 223.268,192.775 227.268,190.275 231.5,188C 234.703,184.629 238.036,181.462 241.5,178.5C 242.575,177.438 243.575,177.438 244.5,178.5C 242.183,181.317 239.683,183.984 237,186.5C 236.506,188.134 236.34,189.801 236.5,191.5 Z"/></g>
<g><path style="opacity:1" fill="#a18c63" d="M 143.5,165.5 C 146.375,170.903 149.542,176.236 153,181.5C 159.358,186.692 165.191,192.359 170.5,198.5C 158.56,193.559 149.893,185.226 144.5,173.5C 144.611,172.883 144.944,172.383 145.5,172C 143.75,170.246 143.083,168.079 143.5,165.5 Z"/></g>
<g><path style="opacity:1" fill="#9f8e6c" d="M 244.5,173.5 C 245.496,173.414 246.329,173.748 247,174.5C 247.494,176.134 247.66,177.801 247.5,179.5C 244.542,184.126 240.876,188.126 236.5,191.5C 236.34,189.801 236.506,188.134 237,186.5C 239.683,183.984 242.183,181.317 244.5,178.5C 243.575,177.438 242.575,177.438 241.5,178.5C 242.075,176.589 243.075,174.922 244.5,173.5 Z"/></g>
<g><path style="opacity:1" fill="#0e0706" d="M 187.5,153.5 C 187.866,158.864 186.533,164.03 183.5,169C 181.888,169.72 180.388,169.554 179,168.5C 178.572,165.678 179.072,163.012 180.5,160.5C 183.167,158.5 185.5,156.167 187.5,153.5 Z"/></g>
<g><path style="opacity:1" fill="#eec377" d="M 216.5,163.5 C 216.5,162.833 216.5,162.167 216.5,161.5C 216.249,158.091 216.583,154.758 217.5,151.5C 217.833,151.167 218.167,150.833 218.5,150.5C 219.662,155.131 219.828,159.798 219,164.5C 218.329,163.748 217.496,163.414 216.5,163.5 Z"/></g>
<g><path style="opacity:1" fill="#6a5d4b" d="M 187.5,153.5 C 185.5,156.167 183.167,158.5 180.5,160.5C 181.833,157.167 184.167,154.833 187.5,153.5 Z"/></g>
<g><path style="opacity:1" fill="#5b4e40" d="M 229.5,151.5 C 229.833,151.5 230.167,151.5 230.5,151.5C 229.507,156.313 228.007,160.98 226,165.5C 223.984,167.608 221.817,167.942 219.5,166.5C 220.492,166.672 221.158,166.338 221.5,165.5C 222.117,165.611 222.617,165.944 223,166.5C 226.23,161.982 228.397,156.982 229.5,151.5 Z"/></g>
<g><path style="opacity:1" fill="#d7b980" d="M 230.5,147.5 C 231.492,147.328 232.158,147.662 232.5,148.5C 232.068,149.71 231.401,150.71 230.5,151.5C 230.167,151.5 229.833,151.5 229.5,151.5C 229.433,150.041 229.766,148.708 230.5,147.5 Z"/></g>
<g><path style="opacity:1" fill="#b79562" d="M 220.5,154.5 C 220.323,158.234 220.656,161.901 221.5,165.5C 221.158,166.338 220.492,166.672 219.5,166.5C 218.167,165.833 217.167,164.833 216.5,163.5C 217.496,163.414 218.329,163.748 219,164.5C 219.828,159.798 219.662,155.131 218.5,150.5C 218.167,150.833 217.833,151.167 217.5,151.5C 216.583,154.758 216.249,158.091 216.5,161.5C 215.521,158.375 215.187,155.042 215.5,151.5C 216.309,149.708 216.809,147.708 217,145.5C 218.011,144.663 219.178,144.33 220.5,144.5C 220.5,147.833 220.5,151.167 220.5,154.5 Z"/></g>
<g><path style="opacity:1" fill="#3a3531" d="M 252.5,185.5 C 251.928,187.255 251.094,188.922 250,190.5C 247.271,193.399 244.438,196.066 241.5,198.5C 235.851,203.023 229.518,206.523 222.5,209C 221.929,210.205 221.262,211.372 220.5,212.5C 219.833,211.833 219.167,211.167 218.5,210.5C 214.37,211.624 210.37,212.957 206.5,214.5C 201.636,213.188 196.803,213.188 192,214.5C 188.392,212.839 184.725,212.505 181,213.5C 180.626,214.416 180.126,215.25 179.5,216C 181.645,216.743 181.811,217.576 180,218.5C 177.26,218.503 174.427,218.17 171.5,217.5C 171.863,216.817 172.196,216.15 172.5,215.5C 175.071,214.238 175.071,212.905 172.5,211.5C 173.716,210.904 175.049,210.737 176.5,211C 174.072,208.642 171.739,208.476 169.5,210.5C 168.476,209.147 167.143,208.48 165.5,208.5C 165.5,207.167 165.5,205.833 165.5,204.5C 163.692,204.509 162.025,204.009 160.5,203C 157.668,199.722 154.335,198.055 150.5,198C 151.684,196.855 151.684,195.688 150.5,194.5C 150.5,194.167 150.5,193.833 150.5,193.5C 155.996,197.94 161.496,201.607 167,204.5C 167.677,202.311 168.844,201.978 170.5,203.5C 171.542,207.626 173.542,208.293 176.5,205.5C 177.262,206.628 177.929,207.795 178.5,209C 186.668,211.939 194.835,212.106 203,209.5C 205.639,209.552 208.306,209.886 211,210.5C 213.996,210.086 216.496,208.752 218.5,206.5C 219.768,207.428 221.101,207.595 222.5,207C 226.684,205.255 231.351,202.921 236.5,200C 237.167,199.333 237.833,198.667 238.5,198C 237.289,197.107 237.289,196.274 238.5,195.5C 241.428,196.921 242.762,195.921 242.5,192.5C 243.552,192.649 244.552,192.483 245.5,192C 247.75,189.578 250.083,187.411 252.5,185.5 Z"/></g>
<g><path style="opacity:1" fill="#f2eeca" d="M 184.5,198.5 C 188.119,199.244 191.785,199.577 195.5,199.5C 196.609,200.29 197.942,200.79 199.5,201C 198.663,202.011 198.33,203.178 198.5,204.5C 195.5,204.5 192.5,204.5 189.5,204.5C 189.167,204.5 188.833,204.5 188.5,204.5C 186.987,202.651 185.654,200.651 184.5,198.5 Z"/></g>
<g><path style="opacity:1" fill="#c1af83" d="M 219.5,195.5 C 221.515,196.924 223.848,197.59 226.5,197.5C 214.958,204.342 202.625,206.676 189.5,204.5C 192.5,204.5 195.5,204.5 198.5,204.5C 198.33,203.178 198.663,202.011 199.5,201C 197.942,200.79 196.609,200.29 195.5,199.5C 203.777,199.763 211.777,198.43 219.5,195.5 Z"/></g>
<g><path style="opacity:1" fill="#836b4b" d="M 122.5,238.5 C 120.097,238.393 118.264,239.393 117,241.5C 114.598,247.354 112.765,253.354 111.5,259.5C 110.494,259.938 110.494,260.604 111.5,261.5C 110.883,261.611 110.383,261.944 110,262.5C 108.004,267.44 107.171,272.44 107.5,277.5C 109.186,276.143 110.852,274.81 112.5,273.5C 111.442,277.75 108.942,279.084 105,277.5C 104.667,276.167 104.333,274.833 104,273.5C 103.617,274.056 103.117,274.389 102.5,274.5C 103.942,271.78 105.275,268.946 106.5,266C 106.257,265.098 105.923,264.265 105.5,263.5C 106.497,263.53 107.164,263.03 107.5,262C 109.61,255.002 112.11,248.169 115,241.5C 116.167,240.333 117.333,239.167 118.5,238C 120.066,237.235 121.399,237.402 122.5,238.5 Z"/></g>
<g><path style="opacity:1" fill="#64594a" d="M 122.5,238.5 C 123.83,241.44 123.663,244.44 122,247.5C 122.152,244.553 122.319,241.553 122.5,238.5 Z"/></g>
<g><path style="opacity:1" fill="#372e27" d="M 296.5,238.5 C 297.043,238.56 297.376,238.893 297.5,239.5C 294.829,242.837 292.663,246.504 291,250.5C 291.45,245.93 293.283,241.93 296.5,238.5 Z"/></g>
<g><path style="opacity:1" fill="#52422c" d="M 63.5,236.5 C 66.6852,236.02 69.5185,236.686 72,238.5C 72.6667,239.833 72.6667,241.167 72,242.5C 71.4198,238.574 69.2531,237.074 65.5,238C 60.0105,239.979 57.0105,243.812 56.5,249.5C 61.8996,250.215 66.3996,248.548 70,244.5C 70.5074,245.996 70.0074,247.163 68.5,248C 64.8821,249.653 61.2155,251.153 57.5,252.5C 60.1955,256.03 62.6955,259.696 65,263.5C 66.6261,275.453 61.4594,280.286 49.5,278C 47.0768,277.268 45.9101,275.768 46,273.5C 51.9642,279.032 57.6308,278.698 63,272.5C 63.9115,268.548 63.2448,264.881 61,261.5C 58.2774,258.443 55.944,255.11 54,251.5C 48.2517,248.569 47.085,244.403 50.5,239C 52.9102,237.133 55.2436,237.133 57.5,239C 51.5333,238.299 49.0333,240.799 50,246.5C 50.6891,247.357 51.5224,248.023 52.5,248.5C 54.8289,243.175 58.4956,239.175 63.5,236.5 Z"/></g>
<g><path style="opacity:1" fill="#4c4030" d="M 111.5,261.5 C 110.494,260.604 110.494,259.938 111.5,259.5C 114.115,257.621 116.281,255.288 118,252.5C 118.492,253.549 118.326,254.549 117.5,255.5C 118.325,256.386 119.325,256.719 120.5,256.5C 120.5,257.5 120.5,258.5 120.5,259.5C 118.857,259.52 117.524,258.853 116.5,257.5C 114.814,258.857 113.148,260.19 111.5,261.5 Z"/></g>
<g><path style="opacity:1" fill="#967d5b" d="M 239.5,265.5 C 239.158,264.662 238.492,264.328 237.5,264.5C 232.464,262.337 229.297,264.004 228,269.5C 227.126,272.379 227.46,275.045 229,277.5C 231.388,275.707 233.554,273.707 235.5,271.5C 236.461,273.265 236.795,275.265 236.5,277.5C 235.864,272.504 234.531,272.337 232.5,277C 228.035,279.769 225.535,278.603 225,273.5C 224.617,274.056 224.117,274.389 223.5,274.5C 224.908,269.854 227.241,265.688 230.5,262C 233.257,261.218 235.757,261.718 238,263.5C 238.71,262.027 239.876,261.36 241.5,261.5C 241.771,263.38 241.104,264.713 239.5,265.5 Z"/></g>
<g><path style="opacity:1" fill="#0d0706" d="M 105.5,263.5 C 105.923,264.265 106.257,265.098 106.5,266C 105.275,268.946 103.942,271.78 102.5,274.5C 100.858,276.081 98.8583,276.747 96.5,276.5C 96.545,272.654 97.3783,268.987 99,265.5C 100.789,263.771 102.956,263.104 105.5,263.5 Z"/></g>
<g><path style="opacity:1" fill="#130c08" d="M 129.5,275.5 C 127.833,276.167 126.167,276.833 124.5,277.5C 124.25,273.617 124.584,269.617 125.5,265.5C 131.118,260.773 133.285,262.106 132,269.5C 131.764,271.811 130.931,273.811 129.5,275.5 Z"/></g>
<g><path style="opacity:1" fill="#120b08" d="M 237.5,264.5 C 237.122,266.921 236.455,269.254 235.5,271.5C 233.554,273.707 231.388,275.707 229,277.5C 227.46,275.045 227.126,272.379 228,269.5C 229.297,264.004 232.464,262.337 237.5,264.5 Z"/></g>
<g><path style="opacity:1" fill="#5b4930" d="M 79.5,261.5 C 80.4972,261.47 81.1639,261.97 81.5,263C 79.3522,267.606 78.3522,272.44 78.5,277.5C 79.552,277.351 80.552,277.517 81.5,278C 77.8008,278.823 75.4675,277.323 74.5,273.5C 76.5644,269.633 78.2311,265.633 79.5,261.5 Z"/></g>
<g><path style="opacity:1" fill="#6e593c" d="M 105.5,263.5 C 102.956,263.104 100.789,263.771 99,265.5C 97.3783,268.987 96.545,272.654 96.5,276.5C 98.8583,276.747 100.858,276.081 102.5,274.5C 101.263,277.95 98.93,278.95 95.5,277.5C 94.9017,276.205 94.4017,274.872 94,273.5C 93.6174,274.056 93.1174,274.389 92.5,274.5C 93.9079,269.854 96.2412,265.688 99.5,262C 101.989,261.059 103.989,261.559 105.5,263.5 Z"/></g>
<g><path style="opacity:1" fill="#382e23" d="M 315.5,268.5 C 315.5,269.167 315.5,269.833 315.5,270.5C 314.153,269.829 312.986,269.829 312,270.5C 310.682,267.594 310.348,264.594 311,261.5C 311.689,260.643 312.522,259.977 313.5,259.5C 314.738,262.168 314.738,264.834 313.5,267.5C 313.957,268.298 314.624,268.631 315.5,268.5 Z"/></g>
<g><path style="opacity:1" fill="#5c4a34" d="M 155.5,276.5 C 152.904,278.626 150.071,278.959 147,277.5C 145.999,273.846 146.999,270.846 150,268.5C 148.878,271.23 148.378,274.23 148.5,277.5C 151.325,277.919 153.491,276.919 155,274.5C 159.592,263.057 163.592,251.391 167,239.5C 167.414,239.043 167.914,238.709 168.5,238.5C 169.631,240.074 169.798,241.741 169,243.5C 166.136,251.092 163.469,258.758 161,266.5C 159.408,270.021 157.575,273.354 155.5,276.5 Z"/></g>
<g><path style="opacity:1" fill="#56452d" d="M 186.5,273.5 C 185.57,277.093 183.237,278.759 179.5,278.5C 179.209,272.697 179.875,267.03 181.5,261.5C 182.675,261.281 183.675,261.614 184.5,262.5C 181.951,267.229 181.118,272.229 182,277.5C 183.371,275.959 184.871,274.625 186.5,273.5 Z"/></g>
<g><path style="opacity:1" fill="#d2af77" d="M 237.5,264.5 C 238.492,264.328 239.158,264.662 239.5,265.5C 239.15,268.722 238.483,271.888 237.5,275C 237.684,276.376 238.351,277.209 239.5,277.5C 239.5,277.833 239.5,278.167 239.5,278.5C 238.209,278.737 237.209,278.404 236.5,277.5C 236.795,275.265 236.461,273.265 235.5,271.5C 236.455,269.254 237.122,266.921 237.5,264.5 Z"/></g>
<g><path style="opacity:1" fill="#5d4a32" d="M 303.5,261.5 C 304.675,261.281 305.675,261.614 306.5,262.5C 303.781,267.255 303.114,272.255 304.5,277.5C 306.149,276.352 307.649,275.019 309,273.5C 308.342,277.958 305.842,279.291 301.5,277.5C 300.833,275.833 300.167,274.167 299.5,272.5C 301.621,269.138 302.955,265.471 303.5,261.5 Z"/></g>
<g><path style="opacity:1" fill="#5f4d33" d="M 197.5,262.5 C 192.595,264.11 190.262,267.61 190.5,273C 190.629,274.981 191.296,276.647 192.5,278C 191.5,278.667 190.5,278.667 189.5,278C 188.601,276.348 187.601,274.848 186.5,273.5C 187.598,267.929 190.598,263.929 195.5,261.5C 196.416,261.543 197.083,261.876 197.5,262.5 Z"/></g>
<g><path style="opacity:1" fill="#7f725f" d="M 243.5,273.5 C 244.128,270.91 245.295,268.577 247,266.5C 246.915,269.336 245.749,271.669 243.5,273.5 Z"/></g>
<g><path style="opacity:1" fill="#594932" d="M 277.5,236.5 C 278.5,236.5 279.5,236.5 280.5,236.5C 281.628,247.155 282.795,257.822 284,268.5C 285,265.5 286,262.5 287,259.5C 287.167,260.333 287.333,261.167 287.5,262C 285.587,267.5 283.92,273 282.5,278.5C 281.5,278.5 280.5,278.5 279.5,278.5C 280.861,266.16 280.695,253.827 279,241.5C 275.393,252.322 271.393,262.988 267,273.5C 265.5,275 264,276.5 262.5,278C 260.527,278.495 258.527,278.662 256.5,278.5C 256.211,275.351 256.711,272.351 258,269.5C 258.718,268.549 259.551,268.383 260.5,269C 258.07,271.305 257.07,274.138 257.5,277.5C 262.267,276.912 265.434,274.245 267,269.5C 270.405,258.451 273.905,247.451 277.5,236.5 Z"/></g>
<g><path style="opacity:1" fill="#5c4932" d="M 293.5,261.5 C 294.873,261.343 296.207,261.51 297.5,262C 292.935,263.497 290.935,266.497 291.5,271C 288.313,275.031 289.313,277.365 294.5,278C 289.671,279.338 287.338,277.504 287.5,272.5C 287.854,267.842 289.854,264.175 293.5,261.5 Z"/></g>
<g><path style="opacity:1" fill="#281f19" d="M 330.5,268.5 C 332.196,268.685 333.529,269.519 334.5,271C 333.833,271.333 333.167,271.667 332.5,272C 333.624,272.249 334.624,272.749 335.5,273.5C 332.912,278.603 330.745,278.603 329,273.5C 328.517,274.448 328.351,275.448 328.5,276.5C 327.609,275.89 326.609,275.557 325.5,275.5C 326.786,272.883 328.453,270.55 330.5,268.5 Z"/></g>
<g><path style="opacity:1" fill="#5d4a31" d="M 73.5,251.5 C 74.4972,251.47 75.1639,251.97 75.5,253C 73.2934,259.952 71.2934,266.952 69.5,274C 69.6752,275.658 70.3418,276.991 71.5,278C 68.0821,278.649 66.7488,277.149 67.5,273.5C 68.0519,268.293 69.3852,263.293 71.5,258.5C 71.1131,257.28 70.2798,256.613 69,256.5C 67.8382,257.187 66.6716,257.353 65.5,257C 67.7006,255.957 70.0339,255.123 72.5,254.5C 73.1272,253.583 73.4606,252.583 73.5,251.5 Z"/></g>
<g><path style="opacity:1" fill="#614e35" d="M 92.5,274.5 C 91.615,278.264 89.4484,279.264 86,277.5C 85.5983,276.128 85.0983,274.795 84.5,273.5C 85.785,269.304 87.4517,265.304 89.5,261.5C 89.8333,262.167 90.1667,262.833 90.5,263.5C 88.6371,268.115 87.9704,272.781 88.5,277.5C 89.8518,276.476 91.1851,275.476 92.5,274.5 Z"/></g>
<g><path style="opacity:1" fill="#5a4931" d="M 155.5,276.5 C 163.382,278.816 169.548,276.483 174,269.5C 178.271,262.365 180.271,254.698 180,246.5C 177.36,238.763 172.194,236.263 164.5,239C 163,240.5 161.5,242 160,243.5C 162.06,237.111 166.56,234.611 173.5,236C 180.152,238.319 183.152,242.986 182.5,250C 182.094,259.56 178.761,267.894 172.5,275C 167.021,278.949 161.354,279.449 155.5,276.5 Z"/></g>
<g><path style="opacity:1" fill="#725d41" d="M 325.5,275.5 C 323.085,278.406 320.085,279.073 316.5,277.5C 315.626,275.253 315.292,272.92 315.5,270.5C 315.5,269.833 315.5,269.167 315.5,268.5C 316.783,266.132 318.45,263.965 320.5,262C 325.1,260.417 326.934,261.917 326,266.5C 325.346,267.696 324.846,267.696 324.5,266.5C 324.833,265.833 325.167,265.167 325.5,264.5C 322.247,262.888 320.08,263.888 319,267.5C 318.316,268.784 318.483,269.951 319.5,271C 317.637,272.418 317.137,274.251 318,276.5C 318.561,277.022 319.228,277.355 320,277.5C 321.8,276.68 323.634,276.014 325.5,275.5 Z"/></g>
<g><path style="opacity:1" fill="#8f7654" d="M 328.5,276.5 C 328.351,275.448 328.517,274.448 329,273.5C 330.745,278.603 332.912,278.603 335.5,273.5C 334.624,272.749 333.624,272.249 332.5,272C 333.167,271.667 333.833,271.333 334.5,271C 333.529,269.519 332.196,268.685 330.5,268.5C 329.513,262.669 331.846,260.502 337.5,262C 338.451,262.718 338.617,263.551 338,264.5C 336.069,261.895 334.236,261.895 332.5,264.5C 334.331,267.874 336.997,269.707 340.5,270C 345.082,265.493 345.415,265.826 341.5,271C 340.552,271.483 339.552,271.649 338.5,271.5C 338.583,275.918 336.416,278.251 332,278.5C 330.301,278.613 329.134,277.947 328.5,276.5 Z"/></g>
<g><path style="opacity:1" fill="#b0926a" d="M 125.5,265.5 C 124.584,269.617 124.25,273.617 124.5,277.5C 126.167,276.833 127.833,276.167 129.5,275.5C 130.492,275.328 131.158,275.662 131.5,276.5C 127.672,279.5 124.172,279.167 121,275.5C 116.753,279.896 113.919,279.23 112.5,273.5C 113.756,269.644 115.089,265.81 116.5,262C 117.483,261.409 118.15,261.743 118.5,263C 116.407,267.729 115.74,272.562 116.5,277.5C 119.91,275.024 122.076,271.69 123,267.5C 123.708,266.619 124.542,265.953 125.5,265.5 Z"/></g>
<g><path style="opacity:1" fill="#88775e" d="M 131.5,276.5 C 131.158,275.662 130.492,275.328 129.5,275.5C 130.931,273.811 131.764,271.811 132,269.5C 133.285,262.106 131.118,260.773 125.5,265.5C 126.742,261.608 129.242,260.608 133,262.5C 133.502,266.241 133.502,269.908 133,273.5C 134.421,270.991 136.088,268.657 138,266.5C 137.126,270.56 134.959,273.893 131.5,276.5 Z"/></g>
<g><path style="opacity:1" fill="#6b563c" d="M 223.5,274.5 C 222.615,278.264 220.448,279.264 217,277.5C 216.667,272.826 216.833,268.16 217.5,263.5C 215.097,263.393 213.264,264.393 212,266.5C 210.1,270.203 208.6,274.037 207.5,278C 206.256,278.456 205.423,277.956 205,276.5C 203.211,278.229 201.044,278.896 198.5,278.5C 198.662,276.473 198.495,274.473 198,272.5C 197.346,273.696 196.846,273.696 196.5,272.5C 197.54,270.477 198.54,268.477 199.5,266.5C 199.248,264.927 198.582,263.594 197.5,262.5C 198.496,262.414 199.329,262.748 200,263.5C 201.185,261.441 202.352,261.274 203.5,263C 200.995,267.645 200.329,272.478 201.5,277.5C 205.864,273.447 208.697,268.447 210,262.5C 210.561,261.978 211.228,261.645 212,261.5C 213.667,262.833 215.333,262.833 217,261.5C 218.261,261.759 219.261,262.426 220,263.5C 220.262,267.234 219.762,270.901 218.5,274.5C 218.833,275.5 219.167,276.5 219.5,277.5C 220.852,276.476 222.185,275.476 223.5,274.5 Z"/></g>
<g><path style="opacity:1" fill="#867a65" d="M 243.5,273.5 C 242.92,275.749 241.587,277.415 239.5,278.5C 239.5,278.167 239.5,277.833 239.5,277.5C 240.5,275.833 241.833,274.5 243.5,273.5 Z"/></g>
<g><path style="opacity:1" fill="#a59376" d="M 204.5,295.5 C 203.833,298.167 203.167,300.833 202.5,303.5C 202.5,300.167 202.5,296.833 202.5,293.5C 203.978,293.238 205.311,293.571 206.5,294.5C 206.043,295.298 205.376,295.631 204.5,295.5 Z"/></g>
<g><path style="opacity:1" fill="#60513f" d="M 189.5,299.5 C 192.611,304.164 194.277,309.164 194.5,314.5C 193.308,312.258 192.308,309.925 191.5,307.5C 188.966,306.223 186.466,306.223 184,307.5C 183.381,310.032 182.381,312.365 181,314.5C 182.36,308.082 184.36,301.749 187,295.5C 187.667,294.167 188.333,294.167 189,295.5C 189.49,296.793 189.657,298.127 189.5,299.5 Z"/></g>
<g><path style="opacity:1" fill="#120a05" d="M 189.5,299.5 C 189.833,301.5 190.167,303.5 190.5,305.5C 188.833,305.5 187.167,305.5 185.5,305.5C 185.826,302.689 186.659,300.022 188,297.5C 188.278,298.416 188.778,299.082 189.5,299.5 Z"/></g>
<g><path style="opacity:1" fill="#60513f" d="M 167.5,293.5 C 168.479,296.625 168.813,299.958 168.5,303.5C 171.167,303.5 173.833,303.5 176.5,303.5C 177.211,290.3 177.878,290.466 178.5,304C 178.167,307.5 177.833,311 177.5,314.5C 176.516,311.572 176.183,308.572 176.5,305.5C 173.833,305.5 171.167,305.5 168.5,305.5C 168.665,308.518 168.498,311.518 168,314.5C 167.5,307.508 167.334,300.508 167.5,293.5 Z"/></g>
<g><path style="opacity:1" fill="#655440" d="M 204.5,295.5 C 204.5,298.833 204.5,302.167 204.5,305.5C 212.44,306.063 214.44,302.896 210.5,296C 211.167,295.333 211.833,295.333 212.5,296C 214.524,300.713 213.524,304.546 209.5,307.5C 210.635,309.799 211.968,311.966 213.5,314C 213.167,314.167 212.833,314.333 212.5,314.5C 210.712,312.424 209.046,310.257 207.5,308C 206.207,307.51 204.873,307.343 203.5,307.5C 203.663,309.857 203.497,312.19 203,314.5C 202.501,310.848 202.335,307.182 202.5,303.5C 203.167,300.833 203.833,298.167 204.5,295.5 Z"/></g>
<g><path style="opacity:1" fill="#4a3c2c" d="M 197.5,293.5 C 198.821,296.598 199.488,300.098 199.5,304C 199.167,307.5 198.833,311 198.5,314.5C 197.503,307.532 197.17,300.532 197.5,293.5 Z"/></g>
</svg>
